<mxfile host="app.diagrams.net" modified="2023-10-29T19:58:17.785Z" agent="Mozilla/5.0 (Macintosh; Intel Mac OS X 10_15_7) AppleWebKit/537.36 (KHTML, like Gecko) Chrome/118.0.0.0 Safari/537.36" etag="E1qAGh4g5OW5jeP_xDr7" version="22.0.8" type="github">
  <diagram name="페이지-1" id="GbeudWX1eTzu1wAjxZDw">
    <mxGraphModel dx="787" dy="527" grid="1" gridSize="10" guides="1" tooltips="1" connect="1" arrows="1" fold="1" page="1" pageScale="1" pageWidth="827" pageHeight="1169" math="0" shadow="0">
      <root>
        <mxCell id="0" />
        <mxCell id="1" parent="0" />
        <mxCell id="3PdHkanHvvUAxT02TV6M-13" value="" style="rounded=1;whiteSpace=wrap;html=1;" vertex="1" parent="1">
          <mxGeometry x="160" y="390" width="390" height="230" as="geometry" />
        </mxCell>
        <mxCell id="3PdHkanHvvUAxT02TV6M-11" value="&lt;span style=&quot;white-space: pre;&quot;&gt;&#x9;&lt;/span&gt;&lt;span style=&quot;white-space: pre;&quot;&gt;&#x9;&lt;/span&gt;&lt;span style=&quot;white-space: pre;&quot;&gt;&#x9;&lt;/span&gt;&lt;span style=&quot;white-space: pre;&quot;&gt;&#x9;&lt;/span&gt;&lt;span style=&quot;white-space: pre;&quot;&gt;&#x9;&lt;/span&gt;&lt;br&gt;&lt;br&gt;&lt;br&gt;&lt;br&gt;&lt;br&gt;&lt;br&gt;&lt;br&gt;&lt;br&gt;&lt;br&gt;&lt;br&gt;&lt;br&gt;&lt;br&gt;&lt;br&gt;&lt;br&gt;&lt;span style=&quot;white-space: pre;&quot;&gt;&#x9;&lt;/span&gt;&lt;span style=&quot;white-space: pre;&quot;&gt;&#x9;&lt;/span&gt;&lt;span style=&quot;white-space: pre;&quot;&gt;&#x9;&lt;/span&gt;&lt;span style=&quot;white-space: pre;&quot;&gt;&#x9;&lt;span style=&quot;white-space: pre;&quot;&gt;&#x9;&lt;/span&gt;&lt;span style=&quot;white-space: pre;&quot;&gt;&#x9;&lt;/span&gt;&lt;span style=&quot;white-space: pre;&quot;&gt;&#x9;&lt;/span&gt;&lt;/span&gt;클라이언트" style="rounded=0;whiteSpace=wrap;html=1;" vertex="1" parent="1">
          <mxGeometry x="40" y="10" width="270" height="250" as="geometry" />
        </mxCell>
        <mxCell id="3PdHkanHvvUAxT02TV6M-1" value="" style="sketch=0;outlineConnect=0;fontColor=#232F3E;gradientColor=none;fillColor=#232F3D;strokeColor=none;dashed=0;verticalLabelPosition=bottom;verticalAlign=top;align=center;html=1;fontSize=12;fontStyle=0;aspect=fixed;pointerEvents=1;shape=mxgraph.aws4.user;" vertex="1" parent="1">
          <mxGeometry x="70" y="30" width="78" height="78" as="geometry" />
        </mxCell>
        <mxCell id="3PdHkanHvvUAxT02TV6M-2" value="" style="sketch=0;outlineConnect=0;fontColor=#232F3E;gradientColor=none;fillColor=#232F3D;strokeColor=none;dashed=0;verticalLabelPosition=bottom;verticalAlign=top;align=center;html=1;fontSize=12;fontStyle=0;aspect=fixed;pointerEvents=1;shape=mxgraph.aws4.mobile_client;" vertex="1" parent="1">
          <mxGeometry x="88.5" y="170" width="41" height="78" as="geometry" />
        </mxCell>
        <mxCell id="3PdHkanHvvUAxT02TV6M-3" value="" style="sketch=0;outlineConnect=0;fontColor=#232F3E;gradientColor=none;fillColor=#232F3D;strokeColor=none;dashed=0;verticalLabelPosition=bottom;verticalAlign=top;align=center;html=1;fontSize=12;fontStyle=0;aspect=fixed;pointerEvents=1;shape=mxgraph.aws4.client;" vertex="1" parent="1">
          <mxGeometry x="220" y="32" width="78" height="76" as="geometry" />
        </mxCell>
        <mxCell id="3PdHkanHvvUAxT02TV6M-5" value="HTTP&#xa;protocol" style="sketch=0;outlineConnect=0;fontColor=#232F3E;gradientColor=none;strokeColor=#232F3E;fillColor=#ffffff;dashed=0;verticalLabelPosition=bottom;verticalAlign=top;align=center;html=1;fontSize=12;fontStyle=0;aspect=fixed;shape=mxgraph.aws4.resourceIcon;resIcon=mxgraph.aws4.http_protocol;" vertex="1" parent="1">
          <mxGeometry x="150" y="110" width="60" height="60" as="geometry" />
        </mxCell>
        <mxCell id="3PdHkanHvvUAxT02TV6M-8" value="웹 접속" style="endArrow=classic;html=1;rounded=0;" edge="1" parent="1">
          <mxGeometry y="20" width="50" height="50" relative="1" as="geometry">
            <mxPoint x="160" y="80" as="sourcePoint" />
            <mxPoint x="200" y="80" as="targetPoint" />
            <mxPoint as="offset" />
          </mxGeometry>
        </mxCell>
        <mxCell id="3PdHkanHvvUAxT02TV6M-9" value="앱 접속" style="endArrow=classic;html=1;rounded=0;" edge="1" parent="1">
          <mxGeometry y="-19" width="50" height="50" relative="1" as="geometry">
            <mxPoint x="109" y="120" as="sourcePoint" />
            <mxPoint x="109" y="160" as="targetPoint" />
            <mxPoint as="offset" />
          </mxGeometry>
        </mxCell>
        <mxCell id="3PdHkanHvvUAxT02TV6M-10" value="" style="outlineConnect=0;dashed=0;verticalLabelPosition=bottom;verticalAlign=top;align=center;html=1;shape=mxgraph.aws3.ec2;fillColor=#F58534;gradientColor=none;" vertex="1" parent="1">
          <mxGeometry x="143.5" y="340" width="76.5" height="93" as="geometry" />
        </mxCell>
        <mxCell id="3PdHkanHvvUAxT02TV6M-12" value="요청" style="endArrow=classic;html=1;rounded=0;" edge="1" parent="1">
          <mxGeometry y="-19" width="50" height="50" relative="1" as="geometry">
            <mxPoint x="181.25" y="280" as="sourcePoint" />
            <mxPoint x="181.25" y="320" as="targetPoint" />
            <mxPoint as="offset" />
          </mxGeometry>
        </mxCell>
      </root>
    </mxGraphModel>
  </diagram>
</mxfile>
